<svg xmlns="http://www.w3.org/2000/svg" viewBox="0 0 240 240" role="img" aria-labelledby="title desc">
<title id="title">Lufuno and Aluwani monogram</title>
<desc id="desc">Circular gold wedding monogram logo with letters L and A and floral details</desc>
<defs>
  <linearGradient id="gold" x1="0" x2="1" y1="0" y2="1">
    <stop offset="0%" stop-color="#f5ddb0"/>
    <stop offset="50%" stop-color="#d8b46a"/>
    <stop offset="100%" stop-color="#9d6e20"/>
  </linearGradient>
</defs>
<rect width="240" height="240" rx="36" fill="#0f0b09"/>
<circle cx="120" cy="120" r="88" fill="none" stroke="url(#gold)" stroke-width="4"/>
<circle cx="120" cy="120" r="73" fill="none" stroke="#f4ead8" stroke-opacity="0.25" stroke-width="1.5" stroke-dasharray="2 7"/>
<path d="M63 144c14-9 25-24 31-44h12v57h18v10H79v-10h15v-27c-5 9-13 17-24 24z" fill="url(#gold)"/>
<path d="M141 169v-11h13l-6-16h-34l-7 16h11v11H83v-11h10l29-66h11l28 66h10v11zm-10-38-10-25-11 25z" fill="#f8efe4"/>
<path d="M120 43c6 12 16 21 29 26-14 4-24 12-29 24-6-12-16-20-29-24 13-5 23-14 29-26z" fill="url(#gold)" opacity="0.95"/>
<g fill="none" stroke="url(#gold)" stroke-width="2.4" stroke-linecap="round">
  <path d="M55 82c7 2 13 7 16 14"/>
  <path d="M185 82c-7 2-13 7-16 14"/>
  <path d="M55 158c7-2 13-7 16-14"/>
  <path d="M185 158c-7-2-13-7-16-14"/>
</g>
<g fill="#f2cf8a">
  <circle cx="52" cy="80" r="4"/>
  <circle cx="188" cy="80" r="4"/>
  <circle cx="52" cy="160" r="4"/>
  <circle cx="188" cy="160" r="4"/>
</g>
</svg>